<mxfile host="65bd71144e">
    <diagram id="8hG75okedO__Mh4vVQxK" name="Page-1">
        <mxGraphModel dx="883" dy="356" grid="1" gridSize="10" guides="1" tooltips="1" connect="1" arrows="1" fold="1" page="1" pageScale="1" pageWidth="1100" pageHeight="850" math="0" shadow="1">
            <root>
                <mxCell id="0"/>
                <mxCell id="1" parent="0"/>
                <mxCell id="40" value="1" style="edgeStyle=none;html=1;endArrow=none;endFill=0;fontSize=10;noEdgeStyle=1;orthogonal=1;shape=link;" edge="1" parent="1" source="95" target="135">
                    <mxGeometry relative="1" as="geometry">
                        <mxPoint x="449" y="681.4" as="sourcePoint"/>
                        <mxPoint x="1190" y="1182.4" as="targetPoint"/>
                        <Array as="points"/>
                    </mxGeometry>
                </mxCell>
                <mxCell id="7" value="" style="endArrow=none;html=1;fontSize=10;noEdgeStyle=1;orthogonal=1;" parent="1" source="89" target="95" edge="1">
                    <mxGeometry width="50" height="50" relative="1" as="geometry">
                        <mxPoint x="290.0031892609745" y="610.6022713761087" as="sourcePoint"/>
                        <mxPoint x="350.81818181818187" y="651.4" as="targetPoint"/>
                        <Array as="points"/>
                    </mxGeometry>
                </mxCell>
                <mxCell id="8" value="" style="endArrow=none;html=1;fontSize=10;noEdgeStyle=1;orthogonal=1;" parent="1" source="95" target="88" edge="1">
                    <mxGeometry width="50" height="50" relative="1" as="geometry">
                        <mxPoint x="329" y="681.4" as="sourcePoint"/>
                        <mxPoint x="309" y="681.4" as="targetPoint"/>
                        <Array as="points"/>
                    </mxGeometry>
                </mxCell>
                <mxCell id="24" value="1" style="edgeStyle=none;html=1;endArrow=none;endFill=0;fontSize=10;noEdgeStyle=1;orthogonal=1;" edge="1" parent="1" source="96" target="100">
                    <mxGeometry relative="1" as="geometry">
                        <mxPoint x="401.3529411764706" y="153.75294117647059" as="targetPoint"/>
                        <mxPoint x="399" y="61.39999999999998" as="sourcePoint"/>
                        <Array as="points"/>
                    </mxGeometry>
                </mxCell>
                <mxCell id="51" value="1" style="edgeStyle=none;html=1;fontSize=10;endArrow=none;endFill=0;noEdgeStyle=1;orthogonal=1;shape=link;" edge="1" parent="1" source="96" target="99">
                    <mxGeometry relative="1" as="geometry">
                        <mxPoint x="459" y="31.399999999999977" as="sourcePoint"/>
                        <mxPoint x="619" y="31.399999999999977" as="targetPoint"/>
                        <Array as="points"/>
                    </mxGeometry>
                </mxCell>
                <mxCell id="12" style="edgeStyle=none;html=1;endArrow=none;endFill=0;fontSize=10;noEdgeStyle=1;orthogonal=1;" edge="1" parent="1" source="90" target="96">
                    <mxGeometry relative="1" as="geometry">
                        <mxPoint x="-370.0353058195594" y="50.62627304101602" as="sourcePoint"/>
                        <mxPoint x="-316" y="91.39999999999998" as="targetPoint"/>
                        <Array as="points"/>
                    </mxGeometry>
                </mxCell>
                <mxCell id="14" style="edgeStyle=none;html=1;endArrow=none;endFill=0;fontSize=10;noEdgeStyle=1;orthogonal=1;" edge="1" parent="1" source="94" target="96">
                    <mxGeometry relative="1" as="geometry">
                        <mxPoint x="-370.14618801394045" y="192.1048275026792" as="sourcePoint"/>
                        <mxPoint x="-331" y="149.39999999999998" as="targetPoint"/>
                        <Array as="points"/>
                    </mxGeometry>
                </mxCell>
                <mxCell id="16" style="edgeStyle=none;html=1;endArrow=none;endFill=0;fontSize=10;noEdgeStyle=1;orthogonal=1;" edge="1" parent="1" source="93" target="96">
                    <mxGeometry relative="1" as="geometry">
                        <mxPoint x="-373.4353672388381" y="107.56578572829892" as="sourcePoint"/>
                        <mxPoint x="-331" y="117.64999999999998" as="targetPoint"/>
                        <Array as="points"/>
                    </mxGeometry>
                </mxCell>
                <mxCell id="25" value="1" style="edgeStyle=none;html=1;endArrow=none;endFill=0;fontSize=10;noEdgeStyle=1;orthogonal=1;shape=link;" edge="1" parent="1" source="108" target="100">
                    <mxGeometry relative="1" as="geometry">
                        <mxPoint x="-491" y="791.4" as="targetPoint"/>
                        <mxPoint x="1059" y="416.4" as="sourcePoint"/>
                        <Array as="points"/>
                    </mxGeometry>
                </mxCell>
                <mxCell id="19" style="edgeStyle=none;html=1;endArrow=none;endFill=0;fontSize=10;noEdgeStyle=1;orthogonal=1;" edge="1" parent="1" source="101" target="108">
                    <mxGeometry relative="1" as="geometry">
                        <mxPoint x="-590.1461880139404" y="820.6951724973209" as="sourcePoint"/>
                        <mxPoint x="1022.333333333333" y="356.4" as="targetPoint"/>
                        <Array as="points"/>
                    </mxGeometry>
                </mxCell>
                <mxCell id="21" style="edgeStyle=none;html=1;endArrow=none;endFill=0;fontSize=10;noEdgeStyle=1;orthogonal=1;" edge="1" parent="1" source="106" target="108">
                    <mxGeometry relative="1" as="geometry">
                        <mxPoint x="-571.0000000000007" y="891.4" as="sourcePoint"/>
                        <mxPoint x="1095.666666666667" y="356.4" as="targetPoint"/>
                        <Array as="points"/>
                    </mxGeometry>
                </mxCell>
                <mxCell id="23" style="edgeStyle=none;html=1;endArrow=none;endFill=0;fontSize=10;noEdgeStyle=1;orthogonal=1;" edge="1" parent="1" source="105" target="108">
                    <mxGeometry relative="1" as="geometry">
                        <mxPoint x="-590.1461880139404" y="962.1048275026791" as="sourcePoint"/>
                        <mxPoint x="1059" y="356.4" as="targetPoint"/>
                        <Array as="points"/>
                    </mxGeometry>
                </mxCell>
                <mxCell id="31" style="edgeStyle=none;html=1;endArrow=none;endFill=0;fontSize=10;noEdgeStyle=1;orthogonal=1;" edge="1" parent="1" source="119" target="117">
                    <mxGeometry relative="1" as="geometry">
                        <mxPoint x="845" y="622.4" as="sourcePoint"/>
                        <mxPoint x="745" y="712.4" as="targetPoint"/>
                        <Array as="points"/>
                    </mxGeometry>
                </mxCell>
                <mxCell id="32" style="edgeStyle=none;html=1;endArrow=none;endFill=0;fontSize=10;noEdgeStyle=1;orthogonal=1;" edge="1" parent="1" source="120" target="117">
                    <mxGeometry relative="1" as="geometry">
                        <mxPoint x="695.1826448355112" y="596.9704302080742" as="sourcePoint"/>
                        <mxPoint x="775" y="712.4" as="targetPoint"/>
                        <Array as="points"/>
                    </mxGeometry>
                </mxCell>
                <mxCell id="67" value="M" style="edgeStyle=none;html=1;fontSize=10;endArrow=none;endFill=0;noEdgeStyle=1;orthogonal=1;shape=link;" edge="1" parent="1" source="123" target="121">
                    <mxGeometry relative="1" as="geometry">
                        <mxPoint x="695" y="932.4000000000001" as="sourcePoint"/>
                        <mxPoint x="635" y="822.4" as="targetPoint"/>
                    </mxGeometry>
                </mxCell>
                <mxCell id="61" style="edgeStyle=none;html=1;fontSize=10;endArrow=none;endFill=0;noEdgeStyle=1;orthogonal=1;" edge="1" parent="1" source="128" target="129">
                    <mxGeometry relative="1" as="geometry">
                        <mxPoint x="260" y="1112.4" as="sourcePoint"/>
                        <mxPoint x="260" y="1187.7589838486224" as="targetPoint"/>
                    </mxGeometry>
                </mxCell>
                <mxCell id="110" value="M" style="edgeStyle=none;html=1;fontFamily=Helvetica;fontSize=10;fontColor=default;endArrow=none;endFill=0;noEdgeStyle=1;orthogonal=1;" edge="1" parent="1" source="124" target="99">
                    <mxGeometry relative="1" as="geometry">
                        <mxPoint x="920" y="272.4" as="sourcePoint"/>
                        <Array as="points"/>
                    </mxGeometry>
                </mxCell>
                <mxCell id="72" value="M" style="edgeStyle=none;html=1;fontSize=10;endArrow=none;endFill=0;noEdgeStyle=1;orthogonal=1;shape=link;" edge="1" parent="1" source="136" target="134">
                    <mxGeometry relative="1" as="geometry">
                        <mxPoint x="1060" y="452.4" as="sourcePoint"/>
                        <mxPoint x="1039.047619047619" y="393.35238095238094" as="targetPoint"/>
                        <Array as="points"/>
                    </mxGeometry>
                </mxCell>
                <mxCell id="41" value="M" style="edgeStyle=none;html=1;endArrow=none;endFill=0;fontSize=10;noEdgeStyle=1;orthogonal=1;shape=link;" edge="1" parent="1" source="135" target="136">
                    <mxGeometry relative="1" as="geometry">
                        <mxPoint x="1230" y="322.4" as="sourcePoint"/>
                        <mxPoint x="1169" y="452.4" as="targetPoint"/>
                        <Array as="points"/>
                    </mxGeometry>
                </mxCell>
                <mxCell id="49" style="edgeStyle=none;html=1;endArrow=none;endFill=0;fontSize=10;noEdgeStyle=1;orthogonal=1;" edge="1" parent="1" source="138" target="136">
                    <mxGeometry relative="1" as="geometry">
                        <mxPoint x="1200" y="582.4" as="sourcePoint"/>
                        <mxPoint x="1180" y="512.4" as="targetPoint"/>
                        <Array as="points"/>
                    </mxGeometry>
                </mxCell>
                <mxCell id="48" style="edgeStyle=none;html=1;endArrow=none;endFill=0;fontSize=10;noEdgeStyle=1;orthogonal=1;" edge="1" parent="1" source="139" target="136">
                    <mxGeometry relative="1" as="geometry">
                        <mxPoint x="1130" y="632.4" as="sourcePoint"/>
                        <mxPoint x="1130" y="512.4" as="targetPoint"/>
                        <Array as="points"/>
                    </mxGeometry>
                </mxCell>
                <mxCell id="47" style="edgeStyle=none;html=1;endArrow=none;endFill=0;fontSize=10;noEdgeStyle=1;orthogonal=1;" edge="1" parent="1" source="137" target="136">
                    <mxGeometry relative="1" as="geometry">
                        <mxPoint x="1238.0384757729337" y="452.4" as="sourcePoint"/>
                        <mxPoint x="1180" y="452.4" as="targetPoint"/>
                        <Array as="points"/>
                    </mxGeometry>
                </mxCell>
                <mxCell id="46" style="edgeStyle=none;html=1;endArrow=none;endFill=0;fontSize=10;noEdgeStyle=1;orthogonal=1;" edge="1" parent="1" source="140" target="136">
                    <mxGeometry relative="1" as="geometry">
                        <mxPoint x="1060" y="572.4" as="sourcePoint"/>
                        <mxPoint x="1060" y="512.4" as="targetPoint"/>
                        <Array as="points"/>
                    </mxGeometry>
                </mxCell>
                <mxCell id="58" style="edgeStyle=none;html=1;fontSize=10;endArrow=none;endFill=0;noEdgeStyle=1;orthogonal=1;" edge="1" parent="1" source="97" target="99">
                    <mxGeometry relative="1" as="geometry">
                        <mxPoint x="581.426406871193" y="-20.31572875253812" as="sourcePoint"/>
                        <mxPoint x="632.913043478261" y="17.486956521739216" as="targetPoint"/>
                        <Array as="points"/>
                    </mxGeometry>
                </mxCell>
                <mxCell id="59" style="edgeStyle=none;html=1;fontSize=10;endArrow=none;endFill=0;noEdgeStyle=1;orthogonal=1;" edge="1" parent="1" source="98" target="99">
                    <mxGeometry relative="1" as="geometry">
                        <mxPoint x="578.8618303297924" y="91.50362725265586" as="sourcePoint"/>
                        <mxPoint x="635" y="47.39999999999998" as="targetPoint"/>
                        <Array as="points"/>
                    </mxGeometry>
                </mxCell>
                <mxCell id="63" style="edgeStyle=none;html=1;fontSize=10;endArrow=none;endFill=0;noEdgeStyle=1;orthogonal=1;" edge="1" parent="1" source="131" target="128">
                    <mxGeometry relative="1" as="geometry">
                        <mxPoint x="600" y="280.00350510316525" as="sourcePoint"/>
                        <mxPoint x="220" y="1052.4" as="targetPoint"/>
                        <Array as="points"/>
                    </mxGeometry>
                </mxCell>
                <mxCell id="65" style="edgeStyle=none;html=1;fontSize=10;endArrow=none;endFill=0;noEdgeStyle=1;orthogonal=1;" edge="1" parent="1" source="149" target="128">
                    <mxGeometry relative="1" as="geometry">
                        <mxPoint x="630" y="330.00350510316537" as="sourcePoint"/>
                        <mxPoint x="329" y="1082.4" as="targetPoint"/>
                        <Array as="points"/>
                    </mxGeometry>
                </mxCell>
                <mxCell id="68" value="1" style="edgeStyle=none;html=1;fontSize=10;endArrow=none;endFill=0;noEdgeStyle=1;orthogonal=1;shape=link;" edge="1" parent="1" source="121" target="117">
                    <mxGeometry relative="1" as="geometry">
                        <mxPoint x="700.1308900523561" y="807.5308900523561" as="sourcePoint"/>
                        <mxPoint x="685" y="712.4" as="targetPoint"/>
                    </mxGeometry>
                </mxCell>
                <mxCell id="70" style="edgeStyle=none;html=1;fontSize=10;endArrow=none;endFill=0;noEdgeStyle=1;orthogonal=1;" edge="1" parent="1" source="126" target="124">
                    <mxGeometry relative="1" as="geometry">
                        <mxPoint x="970" y="92.39999999999998" as="sourcePoint"/>
                        <mxPoint x="980" y="212.39999999999998" as="targetPoint"/>
                        <Array as="points"/>
                    </mxGeometry>
                </mxCell>
                <mxCell id="75" style="edgeStyle=none;html=1;fontSize=10;endArrow=none;endFill=0;noEdgeStyle=1;orthogonal=1;" edge="1" parent="1" source="127" target="124">
                    <mxGeometry relative="1" as="geometry">
                        <mxPoint x="880" y="92.39999999999998" as="sourcePoint"/>
                        <mxPoint x="880" y="212.39999999999998" as="targetPoint"/>
                        <Array as="points"/>
                    </mxGeometry>
                </mxCell>
                <mxCell id="107" style="edgeStyle=none;html=1;fontFamily=Helvetica;fontSize=10;fontColor=default;endArrow=none;endFill=0;noEdgeStyle=1;orthogonal=1;" edge="1" parent="1" source="146" target="124">
                    <mxGeometry relative="1" as="geometry">
                        <mxPoint x="616.5517634188773" y="285.1376221782218" as="sourcePoint"/>
                        <mxPoint x="980" y="212.39999999999998" as="targetPoint"/>
                        <Array as="points"/>
                    </mxGeometry>
                </mxCell>
                <mxCell id="88" value="Head Office&lt;br style=&quot;font-size: 10px;&quot;&gt;Address" style="ellipse;whiteSpace=wrap;html=1;align=center;labelBackgroundColor=none;labelBorderColor=none;fontSize=10;" vertex="1" parent="1">
                    <mxGeometry x="20" y="80.00350510316514" width="100" height="40" as="geometry"/>
                </mxCell>
                <mxCell id="89" value="Name" style="ellipse;whiteSpace=wrap;html=1;align=center;fontStyle=4;labelBackgroundColor=none;labelBorderColor=none;fontSize=10;" vertex="1" parent="1">
                    <mxGeometry x="20" y="20.00350510316514" width="100" height="40" as="geometry"/>
                </mxCell>
                <mxCell id="90" value="Name" style="ellipse;whiteSpace=wrap;html=1;align=center;labelBackgroundColor=none;labelBorderColor=none;fontSize=10;" vertex="1" parent="1">
                    <mxGeometry x="20" y="220.00350510316514" width="100" height="40" as="geometry"/>
                </mxCell>
                <mxCell id="93" value="Date of Birth" style="ellipse;whiteSpace=wrap;align=center;labelBackgroundColor=none;labelBorderColor=none;fontFamily=Helvetica;fontSize=10;fontColor=default;strokeColor=default;fillColor=default;" vertex="1" parent="1">
                    <mxGeometry x="20" y="280.00350510316514" width="100" height="40" as="geometry"/>
                </mxCell>
                <mxCell id="94" value="&lt;u style=&quot;font-size: 10px;&quot;&gt;OHIP Number&lt;/u&gt;" style="ellipse;whiteSpace=wrap;html=1;align=center;fontStyle=4;labelBackgroundColor=none;labelBorderColor=none;fontFamily=Helvetica;fontSize=10;fontColor=default;strokeColor=default;fillColor=default;" vertex="1" parent="1">
                    <mxGeometry x="20" y="160.0035051031652" width="100" height="40" as="geometry"/>
                </mxCell>
                <mxCell id="95" value="Company" style="whiteSpace=wrap;html=1;align=center;labelBackgroundColor=none;labelBorderColor=none;fontFamily=Helvetica;fontSize=10;fontColor=default;strokeColor=default;fillColor=default;" vertex="1" parent="1">
                    <mxGeometry x="160" y="80.00350510316514" width="100" height="40" as="geometry"/>
                </mxCell>
                <mxCell id="96" value="Patient" style="whiteSpace=wrap;html=1;align=center;labelBackgroundColor=none;labelBorderColor=none;fontFamily=Helvetica;fontSize=10;fontColor=default;strokeColor=default;fillColor=default;" vertex="1" parent="1">
                    <mxGeometry x="160" y="220.0035051031652" width="100" height="40" as="geometry"/>
                </mxCell>
                <mxCell id="97" value="Vaccination Date" style="ellipse;shape=doubleEllipse;margin=3;whiteSpace=wrap;html=1;align=center;labelBackgroundColor=none;labelBorderColor=none;fontFamily=Helvetica;fontSize=10;fontColor=default;strokeColor=default;fillColor=default;" vertex="1" parent="1">
                    <mxGeometry x="310" y="290.00350510316514" width="100" height="40" as="geometry"/>
                </mxCell>
                <mxCell id="98" value="Vaccine Lot Number" style="ellipse;shape=doubleEllipse;margin=3;whiteSpace=wrap;html=1;align=center;labelBackgroundColor=none;labelBorderColor=none;fontFamily=Helvetica;fontSize=10;fontColor=default;strokeColor=default;fillColor=default;" vertex="1" parent="1">
                    <mxGeometry x="310" y="150.0035051031652" width="100" height="40" as="geometry"/>
                </mxCell>
                <mxCell id="109" value="N" style="edgeStyle=none;html=1;fontFamily=Helvetica;fontSize=10;fontColor=default;endArrow=none;endFill=0;noEdgeStyle=1;orthogonal=1;" edge="1" parent="1" source="99" target="136">
                    <mxGeometry relative="1" as="geometry">
                        <mxPoint x="1060" y="462.4" as="targetPoint"/>
                        <Array as="points"/>
                    </mxGeometry>
                </mxCell>
                <mxCell id="99" value="Receives Vaccination" style="shape=rhombus;perimeter=rhombusPerimeter;whiteSpace=wrap;html=1;align=center;labelBackgroundColor=none;labelBorderColor=none;fontFamily=Helvetica;fontSize=10;fontColor=default;strokeColor=default;fillColor=default;" vertex="1" parent="1">
                    <mxGeometry x="300" y="210.0035051031652" width="120" height="60" as="geometry"/>
                </mxCell>
                <mxCell id="100" value="Has" style="shape=rhombus;perimeter=rhombusPerimeter;whiteSpace=wrap;html=1;align=center;labelBackgroundColor=none;labelBorderColor=none;fontFamily=Helvetica;fontSize=10;fontColor=default;strokeColor=default;fillColor=default;" vertex="1" parent="1">
                    <mxGeometry x="150" y="300.00350510316525" width="120" height="60" as="geometry"/>
                </mxCell>
                <mxCell id="101" value="Name" style="ellipse;whiteSpace=wrap;html=1;align=center;labelBackgroundColor=none;labelBorderColor=none;fontFamily=Helvetica;fontSize=10;fontColor=default;strokeColor=default;fillColor=default;" vertex="1" parent="1">
                    <mxGeometry x="20" y="460.0035051031652" width="100" height="40" as="geometry"/>
                </mxCell>
                <mxCell id="105" value="&lt;u style=&quot;font-size: 10px;&quot;&gt;Phone Number&lt;/u&gt;" style="ellipse;whiteSpace=wrap;html=1;align=center;fontStyle=4;labelBackgroundColor=none;labelBorderColor=none;fontFamily=Helvetica;fontSize=10;fontColor=default;strokeColor=default;fillColor=default;" vertex="1" parent="1">
                    <mxGeometry x="20" y="400.0035051031652" width="100" height="40" as="geometry"/>
                </mxCell>
                <mxCell id="106" value="&lt;u style=&quot;font-size: 10px;&quot;&gt;OHIP&amp;nbsp;&lt;/u&gt;&lt;u style=&quot;font-size: 10px;&quot;&gt;Number&lt;/u&gt;" style="ellipse;whiteSpace=wrap;html=1;align=center;fontStyle=4;labelBackgroundColor=none;labelBorderColor=none;fontFamily=Helvetica;fontSize=10;fontColor=default;strokeColor=default;fillColor=default;" vertex="1" parent="1">
                    <mxGeometry x="20" y="340.00350510316525" width="100" height="40" as="geometry"/>
                </mxCell>
                <mxCell id="108" value="Spouse" style="whiteSpace=wrap;html=1;align=center;labelBackgroundColor=none;labelBorderColor=none;fontFamily=Helvetica;fontSize=10;fontColor=default;strokeColor=default;fillColor=default;" vertex="1" parent="1">
                    <mxGeometry x="160" y="400.0035051031652" width="100" height="40" as="geometry"/>
                </mxCell>
                <mxCell id="115" value="N" style="edgeStyle=none;html=1;fontFamily=Helvetica;fontSize=10;fontColor=default;endArrow=none;endFill=0;noEdgeStyle=1;orthogonal=1;" edge="1" parent="1" source="111" target="123">
                    <mxGeometry relative="1" as="geometry">
                        <mxPoint x="880" y="972.4" as="targetPoint"/>
                        <Array as="points"/>
                    </mxGeometry>
                </mxCell>
                <mxCell id="116" value="M" style="edgeStyle=none;html=1;fontFamily=Helvetica;fontSize=10;fontColor=default;endArrow=none;endFill=0;noEdgeStyle=1;orthogonal=1;" edge="1" parent="1" source="111" target="124">
                    <mxGeometry relative="1" as="geometry">
                        <mxPoint x="860" y="212.39999999999998" as="targetPoint"/>
                        <Array as="points"/>
                    </mxGeometry>
                </mxCell>
                <mxCell id="111" value="Associated with" style="shape=rhombus;perimeter=rhombusPerimeter;whiteSpace=wrap;html=1;align=center;labelBackgroundColor=none;labelBorderColor=none;fontFamily=Helvetica;fontSize=10;fontColor=default;strokeColor=default;fillColor=default;" vertex="1" parent="1">
                    <mxGeometry x="380" y="340.00350510316525" width="120" height="60" as="geometry"/>
                </mxCell>
                <mxCell id="113" value="N" style="edgeStyle=none;html=1;fontFamily=Helvetica;fontSize=10;fontColor=default;endArrow=none;endFill=0;noEdgeStyle=1;orthogonal=1;shape=link;" edge="1" parent="1" source="112" target="122">
                    <mxGeometry relative="1" as="geometry">
                        <mxPoint x="880" y="1132.4" as="targetPoint"/>
                        <Array as="points"/>
                    </mxGeometry>
                </mxCell>
                <mxCell id="114" value="M" style="edgeStyle=none;html=1;fontFamily=Helvetica;fontSize=10;fontColor=default;endArrow=none;endFill=0;noEdgeStyle=1;orthogonal=1;" edge="1" parent="1" source="112" target="124">
                    <mxGeometry relative="1" as="geometry">
                        <mxPoint x="860" y="272.4" as="targetPoint"/>
                        <Array as="points"/>
                    </mxGeometry>
                </mxCell>
                <mxCell id="112" value="Associated with" style="shape=rhombus;perimeter=rhombusPerimeter;whiteSpace=wrap;html=1;align=center;labelBackgroundColor=none;labelBorderColor=none;fontFamily=Helvetica;fontSize=10;fontColor=default;strokeColor=default;fillColor=default;" vertex="1" parent="1">
                    <mxGeometry x="520" y="340.00350510316525" width="120" height="60" as="geometry"/>
                </mxCell>
                <mxCell id="117" value="Medical Practice" style="whiteSpace=wrap;html=1;align=center;labelBackgroundColor=none;labelBorderColor=none;fontFamily=Helvetica;fontSize=10;fontColor=default;strokeColor=default;fillColor=default;" vertex="1" parent="1">
                    <mxGeometry x="390" y="580.0035051031653" width="100" height="40" as="geometry"/>
                </mxCell>
                <mxCell id="119" value="Name" style="ellipse;whiteSpace=wrap;html=1;align=center;fontStyle=4;labelBackgroundColor=none;labelBorderColor=none;fontFamily=Helvetica;fontSize=10;fontColor=default;strokeColor=default;fillColor=default;" vertex="1" parent="1">
                    <mxGeometry x="270" y="550.0035051031653" width="100" height="40" as="geometry"/>
                </mxCell>
                <mxCell id="120" value="Phone Number" style="ellipse;whiteSpace=wrap;html=1;align=center;fontStyle=4;labelBackgroundColor=none;labelBorderColor=none;fontFamily=Helvetica;fontSize=10;fontColor=default;strokeColor=default;fillColor=default;" vertex="1" parent="1">
                    <mxGeometry x="270" y="610.0035051031653" width="100" height="40" as="geometry"/>
                </mxCell>
                <mxCell id="121" value="Associated with" style="shape=rhombus;perimeter=rhombusPerimeter;whiteSpace=wrap;html=1;align=center;labelBackgroundColor=none;labelBorderColor=none;fontFamily=Helvetica;fontSize=10;fontColor=default;strokeColor=default;fillColor=default;" vertex="1" parent="1">
                    <mxGeometry x="380" y="500.00350510316525" width="120" height="60" as="geometry"/>
                </mxCell>
                <mxCell id="150" style="edgeStyle=none;html=1;fontFamily=Helvetica;fontSize=10;fontColor=default;endArrow=none;endFill=0;" edge="1" parent="1" source="122" target="128">
                    <mxGeometry relative="1" as="geometry">
                        <Array as="points">
                            <mxPoint x="580" y="520"/>
                        </Array>
                    </mxGeometry>
                </mxCell>
                <mxCell id="122" value="Nurse" style="whiteSpace=wrap;html=1;align=center;labelBackgroundColor=none;labelBorderColor=none;fontFamily=Helvetica;fontSize=10;fontColor=default;strokeColor=default;fillColor=default;" vertex="1" parent="1">
                    <mxGeometry x="530" y="440.00350510316525" width="100" height="40" as="geometry"/>
                </mxCell>
                <mxCell id="151" value="Total" style="edgeStyle=none;html=1;fontFamily=Helvetica;fontSize=10;fontColor=default;endArrow=none;endFill=0;" edge="1" parent="1" source="123" target="128">
                    <mxGeometry relative="1" as="geometry">
                        <Array as="points">
                            <mxPoint x="580" y="520"/>
                        </Array>
                    </mxGeometry>
                </mxCell>
                <mxCell id="123" value="Doctor" style="whiteSpace=wrap;html=1;align=center;labelBackgroundColor=none;labelBorderColor=none;fontFamily=Helvetica;fontSize=10;fontColor=default;strokeColor=default;fillColor=default;" vertex="1" parent="1">
                    <mxGeometry x="390" y="440.00350510316525" width="100" height="40" as="geometry"/>
                </mxCell>
                <mxCell id="124" value="Vaccination Site" style="whiteSpace=wrap;html=1;align=center;labelBackgroundColor=none;labelBorderColor=none;fontFamily=Helvetica;fontSize=10;fontColor=default;strokeColor=default;fillColor=default;" vertex="1" parent="1">
                    <mxGeometry x="460" y="220.0035051031652" width="100" height="40" as="geometry"/>
                </mxCell>
                <mxCell id="126" value="&lt;u style=&quot;font-size: 10px;&quot;&gt;Name&lt;/u&gt;" style="ellipse;whiteSpace=wrap;html=1;align=center;fontStyle=4;labelBackgroundColor=none;labelBorderColor=none;fontFamily=Helvetica;fontSize=10;fontColor=default;strokeColor=default;fillColor=default;" vertex="1" parent="1">
                    <mxGeometry x="600" y="160.00350510316525" width="100" height="40" as="geometry"/>
                </mxCell>
                <mxCell id="127" value="Address" style="ellipse;whiteSpace=wrap;html=1;align=center;labelBackgroundColor=none;labelBorderColor=none;fontFamily=Helvetica;fontSize=10;fontColor=default;strokeColor=default;fillColor=default;" vertex="1" parent="1">
                    <mxGeometry x="600" y="280.00350510316525" width="100" height="40" as="geometry"/>
                </mxCell>
                <mxCell id="153" value="" style="edgeStyle=none;html=1;fontFamily=Helvetica;fontSize=10;fontColor=default;endArrow=none;endFill=0;rounded=1;" edge="1" parent="1" source="128" target="122">
                    <mxGeometry relative="1" as="geometry"/>
                </mxCell>
                <mxCell id="128" value="Healthcare Worker" style="whiteSpace=wrap;html=1;align=center;labelBackgroundColor=none;labelBorderColor=none;fontFamily=Helvetica;fontSize=10;fontColor=default;strokeColor=default;fillColor=default;" vertex="1" parent="1">
                    <mxGeometry x="530" y="560.0035051031653" width="100" height="40" as="geometry"/>
                </mxCell>
                <mxCell id="129" value="Name" style="ellipse;whiteSpace=wrap;html=1;align=center;labelBackgroundColor=none;labelBorderColor=none;fontFamily=Helvetica;fontSize=10;fontColor=default;strokeColor=default;fillColor=default;" vertex="1" parent="1">
                    <mxGeometry x="650" y="620.0035051031653" width="100" height="40" as="geometry"/>
                </mxCell>
                <mxCell id="131" value="&lt;u style=&quot;font-size: 10px;&quot;&gt;Unique ID&lt;/u&gt;" style="ellipse;whiteSpace=wrap;html=1;align=center;fontStyle=4;labelBackgroundColor=none;labelBorderColor=none;fontFamily=Helvetica;fontSize=10;fontColor=default;strokeColor=default;fillColor=default;" vertex="1" parent="1">
                    <mxGeometry x="650" y="500.00350510316525" width="100" height="40" as="geometry"/>
                </mxCell>
                <mxCell id="145" value="1" style="edgeStyle=none;shape=link;html=1;fontFamily=Helvetica;fontSize=10;fontColor=default;endArrow=none;endFill=0;" edge="1" parent="1" source="134" target="124">
                    <mxGeometry relative="1" as="geometry"/>
                </mxCell>
                <mxCell id="134" value="Shipped to" style="shape=rhombus;perimeter=rhombusPerimeter;whiteSpace=wrap;html=1;align=center;labelBackgroundColor=none;labelBorderColor=none;fontFamily=Helvetica;fontSize=10;fontColor=default;strokeColor=default;fillColor=default;" vertex="1" parent="1">
                    <mxGeometry x="450" y="140.0035051031652" width="120" height="60" as="geometry"/>
                </mxCell>
                <mxCell id="135" value="Produces" style="shape=rhombus;perimeter=rhombusPerimeter;whiteSpace=wrap;html=1;align=center;labelBackgroundColor=none;labelBorderColor=none;fontFamily=Helvetica;fontSize=10;fontColor=default;strokeColor=default;fillColor=default;" vertex="1" parent="1">
                    <mxGeometry x="300" y="70.00350510316514" width="120" height="60" as="geometry"/>
                </mxCell>
                <mxCell id="136" value="Vaccine Lot" style="whiteSpace=wrap;html=1;align=center;labelBackgroundColor=none;labelBorderColor=none;fontFamily=Helvetica;fontSize=10;fontColor=default;strokeColor=default;fillColor=default;" vertex="1" parent="1">
                    <mxGeometry x="460" y="80.0035051031652" width="100" height="40" as="geometry"/>
                </mxCell>
                <mxCell id="137" value="Number of Doses" style="ellipse;whiteSpace=wrap;html=1;align=center;labelBackgroundColor=none;labelBorderColor=none;fontFamily=Helvetica;fontSize=10;fontColor=default;strokeColor=default;fillColor=default;" vertex="1" parent="1">
                    <mxGeometry x="520" y="20.00350510316514" width="100" height="40" as="geometry"/>
                </mxCell>
                <mxCell id="138" value="Production Date" style="ellipse;whiteSpace=wrap;html=1;align=center;labelBackgroundColor=none;labelBorderColor=none;fontFamily=Helvetica;fontSize=10;fontColor=default;strokeColor=default;fillColor=default;" vertex="1" parent="1">
                    <mxGeometry x="400" y="20.003505103165196" width="100" height="40" as="geometry"/>
                </mxCell>
                <mxCell id="140" value="&lt;u style=&quot;font-size: 10px;&quot;&gt;Lot Number&lt;/u&gt;" style="ellipse;whiteSpace=wrap;html=1;align=center;fontStyle=4;labelBackgroundColor=none;labelBorderColor=none;fontFamily=Helvetica;fontSize=10;fontColor=default;strokeColor=default;fillColor=default;" vertex="1" parent="1">
                    <mxGeometry x="280" y="20.003505103165196" width="100" height="40" as="geometry"/>
                </mxCell>
                <mxCell id="139" value="Expiry Date" style="ellipse;whiteSpace=wrap;html=1;align=center;labelBackgroundColor=none;labelBorderColor=none;fontFamily=Helvetica;fontSize=10;fontColor=default;strokeColor=default;fillColor=default;" vertex="1" parent="1">
                    <mxGeometry x="640" y="20.003505103165196" width="100" height="40" as="geometry"/>
                </mxCell>
                <mxCell id="146" value="Vaccine Provision Date" style="ellipse;shape=doubleEllipse;margin=3;whiteSpace=wrap;html=1;align=center;labelBackgroundColor=none;labelBorderColor=none;fontFamily=Helvetica;fontSize=10;fontColor=default;strokeColor=default;fillColor=default;" vertex="1" parent="1">
                    <mxGeometry x="600" y="220" width="100" height="40" as="geometry"/>
                </mxCell>
                <mxCell id="149" value="Credentials" style="ellipse;shape=doubleEllipse;margin=3;whiteSpace=wrap;html=1;align=center;labelBackgroundColor=none;labelBorderColor=none;fontFamily=Helvetica;fontSize=10;fontColor=default;strokeColor=default;fillColor=default;" vertex="1" parent="1">
                    <mxGeometry x="650" y="560" width="100" height="40" as="geometry"/>
                </mxCell>
                <mxCell id="155" style="edgeStyle=none;rounded=1;html=1;fontFamily=Helvetica;fontSize=10;fontColor=default;endArrow=none;endFill=0;" edge="1" parent="1" source="154" target="134">
                    <mxGeometry relative="1" as="geometry"/>
                </mxCell>
                <mxCell id="154" value="Lot Numbers" style="ellipse;shape=doubleEllipse;margin=3;whiteSpace=wrap;html=1;align=center;labelBackgroundColor=none;labelBorderColor=none;fontFamily=Helvetica;fontSize=10;fontColor=default;strokeColor=default;fillColor=default;" vertex="1" parent="1">
                    <mxGeometry x="600" y="100" width="100" height="40" as="geometry"/>
                </mxCell>
            </root>
        </mxGraphModel>
    </diagram>
</mxfile>
